<svg width="95" height="74" viewBox="0 0 95 74" fill="none" xmlns="http://www.w3.org/2000/svg">
<path d="M94.0631 28.6697C93.8054 28.4656 91.4002 26.654 86.3278 26.654C84.9884 26.6598 83.6518 26.7744 82.3311 26.9967C81.3494 20.2844 75.7861 17.0119 75.5367 16.8651L74.1746 16.0815L73.2788 17.371C72.1569 19.1032 71.3379 21.0127 70.8572 23.0183C69.949 26.8499 70.5012 30.4487 72.4525 33.5253C70.0963 34.8351 66.3166 35.1575 65.5517 35.186H2.97375C1.33923 35.1883 0.0128986 36.5059 0.0039908 38.1362C-0.0690001 43.6047 0.859806 49.0406 2.74467 54.1762C4.90036 59.8154 8.10744 63.9692 12.2799 66.5113C16.9554 69.3675 24.5517 70.9997 33.1623 70.9997C37.0523 71.0119 40.9349 70.6607 44.7593 69.9511C50.0755 68.9774 55.1911 67.1238 59.8944 64.4669C63.7699 62.2283 67.2577 59.3804 70.2232 56.0327C75.181 50.4344 78.1346 44.1995 80.3311 38.6584H81.2064C86.6346 38.6584 89.9727 36.4917 91.8134 34.676C93.0367 33.5179 93.9917 32.1072 94.6114 30.5426L95 29.4082L94.0631 28.6697Z" fill="#2496ED"/>
<path d="M8.77416 33.3581H17.1599C17.5643 33.3581 17.892 33.0311 17.892 32.6278V25.1768C17.8943 24.7734 17.5683 24.4446 17.164 24.4424C17.1627 24.4424 17.1612 24.4424 17.1599 24.4424H8.77416C8.36972 24.4424 8.04199 24.7694 8.04199 25.1727V25.1768V32.6276C8.04199 33.0311 8.36972 33.3581 8.77416 33.3581V33.3581Z" fill="#2496ED"/>
<path d="M20.3302 33.3581H28.7159C29.1203 33.3581 29.4481 33.0311 29.4481 32.6278V25.1768C29.4503 24.7734 29.1243 24.4446 28.7199 24.4424C28.7185 24.4424 28.7171 24.4424 28.7158 24.4424H20.33C19.9233 24.4424 19.5938 24.7711 19.5938 25.1768V32.6276C19.5961 33.0317 19.9251 33.3581 20.3302 33.3581" fill="#2496ED"/>
<path d="M32.0619 33.3581H40.4476C40.852 33.3581 41.1798 33.0311 41.1798 32.6278V25.1768C41.182 24.7734 40.856 24.4446 40.4516 24.4424C40.4503 24.4424 40.4488 24.4424 40.4475 24.4424H32.0618C31.6573 24.4424 31.3296 24.7694 31.3296 25.1727V25.1768V32.6276C31.3297 33.0311 31.6576 33.3581 32.0619 33.3581V33.3581Z" fill="#2496ED"/>
<path d="M43.6545 33.3581H52.0402C52.4453 33.3581 52.7743 33.0319 52.7765 32.6278V25.1768C52.7765 24.7711 52.4469 24.4424 52.0402 24.4424H43.6545C43.2501 24.4424 42.9224 24.7694 42.9224 25.1727V25.1768V32.6276C42.9224 33.0311 43.2502 33.3581 43.6545 33.3581V33.3581Z" fill="#2496ED"/>
<path d="M20.33 22.6387H28.7158C29.1207 22.6365 29.4479 22.3082 29.4479 21.9043V14.4535C29.4479 14.0501 29.1201 13.7231 28.7158 13.7231H20.33C19.9251 13.7231 19.596 14.0494 19.5938 14.4535V21.9043C19.596 22.309 19.9243 22.6365 20.33 22.6387Z" fill="#2496ED"/>
<path d="M32.0618 22.6387H40.4475C40.8524 22.6365 41.1796 22.3082 41.1796 21.9043V14.4535C41.1796 14.0501 40.8518 13.7231 40.4475 13.7231H32.0618C31.6573 13.7231 31.3296 14.0502 31.3296 14.4535V21.9043C31.3296 22.3082 31.6568 22.6365 32.0618 22.6387Z" fill="#2496ED"/>
<path d="M43.6545 22.6387H52.0402C52.446 22.6365 52.7743 22.309 52.7765 21.9043V14.4535C52.7743 14.0494 52.4453 13.7231 52.0402 13.7231H43.6545C43.2501 13.7231 42.9224 14.0502 42.9224 14.4535V21.9043C42.9224 22.3082 43.2496 22.6365 43.6545 22.6387Z" fill="#2496ED"/>
<path d="M43.6545 11.9157H52.0402C52.4453 11.9157 52.7743 11.5893 52.7765 11.1854V3.73034C52.7743 3.32625 52.4453 3 52.0402 3H43.6545C43.2501 3 42.9224 3.32691 42.9224 3.73034V11.1852C42.9224 11.5887 43.2502 11.9157 43.6545 11.9157Z" fill="#2496ED"/>
<path d="M55.3498 33.3581H63.7356C64.1407 33.3581 64.4696 33.0319 64.4718 32.6278V25.1768C64.4718 24.7711 64.1423 24.4424 63.7356 24.4424H55.3498C54.9455 24.4424 54.6177 24.7694 54.6177 25.1727V25.1768V32.6276C54.6177 33.0311 54.9455 33.3581 55.3498 33.3581" fill="#2496ED"/>
</svg>
