<svg width="74" height="74" viewBox="0 0 74 74" fill="none" xmlns="http://www.w3.org/2000/svg">
<path d="M35 1C15.68 1 0 16.5916 0 35.8026C0 51.1854 10.01 64.2015 23.94 68.7955C25.69 69.1435 26.32 68.0298 26.32 67.125C26.32 66.2897 26.32 63.5751 26.25 60.6517C16.52 62.7398 14.49 56.545 14.49 56.545C12.88 52.5079 10.57 51.4638 10.57 51.4638C7.42 49.306 10.78 49.3756 10.78 49.3756C14.28 49.6541 16.17 52.9951 16.17 52.9951C19.32 58.2851 24.36 56.7538 26.39 55.9185C26.67 53.6912 27.58 52.1598 28.63 51.255C20.86 50.3501 12.67 47.3571 12.67 34.0625C12.67 30.2342 14.07 27.1716 16.31 24.7354C15.96 23.8305 14.77 20.3503 16.66 15.5475C16.66 15.5475 19.6 14.6426 26.32 19.0974C29.12 18.3317 32.13 17.9141 35.07 17.9141C38.01 17.9141 41.02 18.3317 43.82 19.0974C50.47 14.573 53.41 15.5475 53.41 15.5475C55.3 20.3503 54.11 23.9001 53.76 24.7354C56 27.1716 57.33 30.3038 57.33 34.0625C57.33 47.4267 49.14 50.3501 41.37 51.255C42.63 52.3687 43.75 54.4568 43.75 57.7283C43.75 62.3918 43.68 66.1505 43.68 67.2642C43.68 68.169 44.31 69.2827 46.06 68.9347C59.99 64.2015 70 51.1854 70 35.8026C70 16.5916 54.32 1 35 1Z" fill="white"/>
<path d="M13.8379 53.4278C13.7639 53.5758 13.4679 53.6498 13.1719 53.5758C12.8759 53.4278 12.7279 53.2058 12.8759 52.9838C12.9499 52.7618 13.2459 52.7618 13.5419 52.8358C13.7639 52.9838 13.9859 53.2798 13.8379 53.4278ZM15.6879 55.0558C15.5399 55.2038 15.1699 55.1298 14.9479 54.9078C14.7259 54.6858 14.6519 54.3158 14.8739 54.1678C15.0219 54.0198 15.3919 54.0938 15.6139 54.3158C15.8359 54.5378 15.8359 54.9078 15.6879 55.0558ZM16.9459 57.1278C16.7239 57.2758 16.3539 57.1278 16.1319 56.8318C15.9099 56.5358 15.9099 56.0918 16.1319 55.9438C16.3539 55.7958 16.7239 55.9438 16.9459 56.2398C17.1679 56.6098 17.1679 56.9798 16.9459 57.1278ZM19.0179 59.5698C18.7959 59.7918 18.3519 59.7178 18.0559 59.4218C17.7599 59.1258 17.6119 58.6818 17.8339 58.4598C18.0559 58.2378 18.4999 58.3118 18.7959 58.6078C19.1659 58.9038 19.2399 59.3478 19.0179 59.5698ZM21.7559 60.3838C21.6819 60.6798 21.2379 60.8278 20.8679 60.6798C20.4239 60.5318 20.2019 60.2358 20.2759 59.9398C20.3499 59.6438 20.7939 59.4958 21.2379 59.6438C21.6079 59.7178 21.8299 60.0878 21.7559 60.3838ZM24.8639 60.6798C24.8639 60.9758 24.4939 61.2718 24.0499 61.2718C23.6059 61.2718 23.2359 61.0498 23.2359 60.7538C23.2359 60.4578 23.6059 60.1618 24.0499 60.1618C24.4939 60.1618 24.8639 60.3838 24.8639 60.6798ZM27.8979 60.6058C27.9719 60.9018 27.6759 61.1978 27.2319 61.2718C26.7879 61.3458 26.4179 61.1978 26.3439 60.9018C26.2699 60.6058 26.5659 60.3098 27.0099 60.2358C27.4539 60.0878 27.8979 60.3098 27.8979 60.6058Z" fill="#161616"/>
</svg>
