<svg width="74" height="74" viewBox="0 0 74 74" fill="none" xmlns="http://www.w3.org/2000/svg">
<path d="M34.2026 3.72546C35.8967 2.76036 38.1033 2.756 39.7959 3.72546C48.3114 8.51442 56.8296 13.2959 65.3436 18.0877C66.945 18.9855 68.0161 20.7593 67.9998 22.5957V51.4079C68.0117 53.3205 66.8347 55.1366 65.1453 56.014C56.6578 60.7766 48.1747 65.545 39.6886 70.3075C37.9595 71.2915 35.7086 71.2157 34.0335 70.1511C31.489 68.6829 28.9401 67.2221 26.3953 65.7554C25.8753 65.4469 25.2891 65.2013 24.9219 64.6995C25.2465 64.2641 25.8268 64.2098 26.2984 64.0197C27.3606 63.6835 28.3361 63.1439 29.3119 62.6203C29.5586 62.4523 29.8599 62.5167 30.0964 62.6671C32.2723 63.9088 34.4289 65.1865 36.6121 66.4163C37.0779 66.684 37.5495 66.3287 37.9476 66.1078C46.2764 61.4227 54.6155 56.7554 62.9428 52.0689C63.2514 51.9211 63.422 51.5951 63.3969 51.2587C63.4027 41.7542 63.3984 32.248 63.3998 22.7435C63.4351 22.3618 63.2132 22.0109 62.8664 21.8547C54.4084 17.1139 45.9547 12.3659 37.4981 7.62391C37.3516 7.52365 37.178 7.46986 37.0002 7.4696C36.8224 7.46935 36.6487 7.52263 36.5019 7.62245C28.0453 12.3659 19.5931 17.1183 11.1365 21.8588C10.791 22.0152 10.5591 22.3603 10.6002 22.7435C10.6017 32.248 10.6002 41.7542 10.6002 51.2602C10.5855 51.4243 10.6218 51.589 10.704 51.732C10.7862 51.875 10.9105 51.9896 11.0601 52.0601C13.3168 53.3338 15.5764 54.5985 17.8345 55.8678C19.1067 56.5493 20.6686 56.9542 22.0702 56.4321C23.3071 55.9905 24.1741 54.7343 24.1505 53.4273C24.1622 43.9782 24.1447 34.5277 24.1593 25.0801C24.1284 24.6606 24.5282 24.314 24.9379 24.3535C26.0222 24.3463 27.108 24.339 28.1923 24.3564C28.6449 24.3463 28.9564 24.7979 28.9004 25.2205C28.896 34.7294 28.9121 44.2386 28.8931 53.7474C28.896 56.2817 27.8499 59.0392 25.4947 60.2791C22.5932 61.7751 19.0069 61.4579 16.1404 60.0234C13.6589 58.7907 11.2908 57.3359 8.8533 56.0153C7.15945 55.1427 5.98829 53.3193 6.00021 51.4082V22.5957C5.98245 20.7212 7.09619 18.9153 8.74745 18.0306C17.2335 13.2641 25.7181 8.49407 34.2026 3.72546Z" fill="#8CC84B"/>
<path d="M41.6059 23.6838C45.307 23.4467 49.2693 23.5433 52.5998 25.358C55.1784 26.7486 56.608 29.6672 56.6535 32.5184C56.5814 32.903 56.1775 33.1151 55.8086 33.0887C54.7348 33.0873 53.6607 33.1033 52.5869 33.0815C52.1314 33.0989 51.8666 32.6809 51.8094 32.2801C51.5009 30.9159 50.7534 29.5647 49.4632 28.9067C47.4827 27.9198 45.1864 27.9695 43.0268 27.99C41.4502 28.0734 39.7549 28.2092 38.4192 29.1319C37.3938 29.8309 37.0823 31.2418 37.4483 32.3782C37.7934 33.1941 38.7397 33.4574 39.514 33.7C43.9743 34.8611 48.7008 34.7455 53.076 36.2735C54.8874 36.8964 56.6593 38.1073 57.2793 39.9949C58.0904 42.5247 57.7349 45.5487 55.9264 47.5796C54.4598 49.2509 52.3238 50.1606 50.1934 50.6546C47.3593 51.2836 44.4181 51.2996 41.54 51.0203C38.8336 50.7132 36.0173 50.0056 33.928 48.1703C32.1415 46.6264 31.2689 44.2208 31.3555 41.8989C31.3762 41.5068 31.7684 41.2334 32.1458 41.2656C33.2272 41.2569 34.3086 41.254 35.39 41.2671C35.8219 41.2363 36.1421 41.6078 36.1643 42.013C36.3638 43.3128 36.8546 44.677 37.9934 45.4477C40.1912 46.8589 42.9489 46.7622 45.4655 46.8017C47.5503 46.7097 49.8907 46.6818 51.5921 45.3103C52.4898 44.5281 52.7557 43.2193 52.5131 42.0934C52.2503 41.1428 51.2512 40.6999 50.3932 40.4102C45.9901 39.024 41.2108 39.527 36.8502 37.9593C35.08 37.3367 33.3681 36.1594 32.688 34.3493C31.739 31.7875 32.1738 28.6188 34.1718 26.6563C36.12 24.7043 38.9322 23.9526 41.6059 23.6835V23.6838Z" fill="#8CC84B"/>
</svg>
