<svg width="70" height="68" viewBox="0 0 70 68" fill="none" xmlns="http://www.w3.org/2000/svg">
<path d="M35.0003 39.995C38.2939 39.995 40.9639 37.3109 40.9639 33.9999C40.9639 30.689 38.2939 28.0049 35.0003 28.0049C31.7066 28.0049 29.0366 30.689 29.0366 33.9999C29.0366 37.3109 31.7066 39.995 35.0003 39.995Z" fill="#61DAFB"/>
<path d="M35 46.2823C52.6731 46.2823 67 40.7832 67 33.9998C67 27.2164 52.6731 21.7173 35 21.7173C17.3269 21.7173 3 27.2164 3 33.9998C3 40.7832 17.3269 46.2823 35 46.2823Z" stroke="#61DAFB" stroke-width="5"/>
<path d="M24.4185 40.1412C33.2551 55.5272 45.1559 65.2504 50.9998 61.8587C56.8437 58.467 54.4176 43.2447 45.5811 27.8587C36.7445 12.4728 24.8437 2.74953 18.9998 6.14126C13.1559 9.53298 15.582 24.7553 24.4185 40.1412Z" stroke="#61DAFB" stroke-width="5"/>
<path d="M24.4185 27.8589C15.582 43.2449 13.1559 58.4672 18.9998 61.8589C24.8437 65.2506 36.7445 55.5274 45.5811 40.1414C54.4176 24.7555 56.8437 9.53318 50.9998 6.14146C45.1559 2.74973 33.2551 12.473 24.4185 27.8589Z" stroke="#61DAFB" stroke-width="5"/>
</svg>
