<svg width="46" height="44" viewBox="0 0 46 44" fill="none" xmlns="http://www.w3.org/2000/svg">
<path fill-rule="evenodd" clip-rule="evenodd" d="M22.9297 0C10.2691 0 0 10.0965 0 22.5443C0 32.5025 6.61162 40.9393 15.6147 43.9821C16.7401 44.1204 17.1621 43.4289 17.1621 42.8756C17.1621 42.3224 17.1621 40.9393 17.1621 39.003C10.8318 40.3861 9.42508 35.9602 9.42508 35.9602C8.44037 33.3324 6.89297 32.6408 6.89297 32.6408C4.78287 31.2577 7.03364 31.2577 7.03364 31.2577C9.2844 31.396 10.5505 33.609 10.5505 33.609C12.6606 37.0667 15.896 36.0985 17.1621 35.5453C17.3028 34.0239 18.0061 33.0557 18.5688 32.5025C13.5046 31.9493 8.15902 30.0129 8.15902 21.2995C8.15902 18.81 9.00306 16.8736 10.5505 15.2139C10.4098 14.799 9.56575 12.4478 10.8318 9.40498C10.8318 9.40498 12.8012 8.85174 17.1621 11.7562C18.9908 11.203 20.9602 11.0647 22.9297 11.0647C24.8991 11.0647 26.8685 11.3413 28.6972 11.7562C33.0581 8.85174 35.0275 9.40498 35.0275 9.40498C36.2936 12.4478 35.4495 14.799 35.3089 15.3522C36.7156 16.8736 37.7003 18.9483 37.7003 21.4378C37.7003 30.1513 32.3547 31.9493 27.2905 32.5025C28.1346 33.194 28.8379 34.5771 28.8379 36.6518C28.8379 39.6945 28.8379 42.0458 28.8379 42.8756C28.8379 43.4289 29.2599 44.1204 30.3853 43.9821C39.5291 40.9393 46 32.5025 46 22.5443C45.8593 10.0965 35.5902 0 22.9297 0Z" fill="white"/>
</svg>
