<svg width="60" height="68" viewBox="0 0 60 68" fill="none" xmlns="http://www.w3.org/2000/svg">
<path d="M60 0L54.5338 61.1929L29.9633 68L5.46036 61.2025L0 0H60Z" fill="#264DE4"/>
<path d="M49.8542 57.2965L54.5254 5.00439H30V62.7971L49.8542 57.2965Z" fill="#2965F1"/>
<path d="M12.5176 27.7031L13.1908 35.2093H29.9998V27.7031H12.5176Z" fill="#EBEBEB"/>
<path d="M30 12.5103H29.974H11.165L11.8479 20.0166H30V12.5103Z" fill="#EBEBEB"/>
<path d="M29.9998 55.0071V47.1975L29.9668 47.2063L21.6014 44.949L21.0666 38.9624H17.0016H13.5264L14.5787 50.7483L29.9652 55.0167L29.9998 55.0071Z" fill="#EBEBEB"/>
<path d="M39.2235 35.2092L38.3517 44.9442L29.9741 47.2038V55.0131L45.3728 50.7483L45.4858 49.4801L47.2509 29.7187L47.4342 27.7031L48.7902 12.5103H29.9741V20.0166H40.5584L39.8749 27.7031H29.9741V35.2092H39.2235Z" fill="white"/>
</svg>
