<svg width="44" height="44" viewBox="0 0 44 44" fill="none" xmlns="http://www.w3.org/2000/svg">
<path d="M22 3.9759C27.8313 3.9759 28.6265 3.9759 31.012 3.9759C33.1325 3.9759 34.1928 4.50602 34.988 4.77109C36.0482 5.30121 36.8434 5.56627 37.6386 6.36145C38.4337 7.15663 38.9639 7.95181 39.2289 9.01205C39.494 9.80723 39.759 10.8675 40.0241 12.988C40.0241 15.3735 40.0241 15.9036 40.0241 22C40.0241 28.0964 40.0241 28.6265 40.0241 31.012C40.0241 33.1325 39.494 34.1928 39.2289 34.988C38.6988 36.0482 38.4337 36.8434 37.6386 37.6386C36.8434 38.4337 36.0482 38.9639 34.988 39.2289C34.1928 39.494 33.1325 39.759 31.012 40.0241C28.6265 40.0241 28.0964 40.0241 22 40.0241C15.9036 40.0241 15.3735 40.0241 12.988 40.0241C10.8675 40.0241 9.80723 39.494 9.01205 39.2289C7.95181 38.6988 7.15663 38.4337 6.36145 37.6386C5.56627 36.8434 5.03615 36.0482 4.77109 34.988C4.50602 34.1928 4.24096 33.1325 3.9759 31.012C3.9759 28.6265 3.9759 28.0964 3.9759 22C3.9759 15.9036 3.9759 15.3735 3.9759 12.988C3.9759 10.8675 4.50602 9.80723 4.77109 9.01205C5.30121 7.95181 5.56627 7.15663 6.36145 6.36145C7.15663 5.56627 7.95181 5.03615 9.01205 4.77109C9.80723 4.50602 10.8675 4.24096 12.988 3.9759C15.3735 3.9759 16.1687 3.9759 22 3.9759ZM22 0C15.9036 0 15.3735 0 12.988 0C10.6024 0 9.01205 0.530122 7.68675 1.06024C6.36145 1.59036 5.03615 2.38554 3.71085 3.71085C2.38554 5.03615 1.85542 6.09639 1.06024 7.68675C0.530122 9.01205 0.26506 10.6024 0 12.988C0 15.3735 0 16.1687 0 22C0 28.0964 0 28.6265 0 31.012C0 33.3976 0.530122 34.988 1.06024 36.3133C1.59036 37.6386 2.38554 38.9639 3.71085 40.2892C5.03615 41.6145 6.09639 42.1446 7.68675 42.9398C9.01205 43.4699 10.6024 43.7349 12.988 44C15.3735 44 16.1687 44 22 44C27.8313 44 28.6265 44 31.012 44C33.3976 44 34.988 43.4699 36.3133 42.9398C37.6386 42.4096 38.9639 41.6145 40.2892 40.2892C41.6145 38.9639 42.1446 37.9036 42.9398 36.3133C43.4699 34.988 43.7349 33.3976 44 31.012C44 28.6265 44 27.8313 44 22C44 16.1687 44 15.3735 44 12.988C44 10.6024 43.4699 9.01205 42.9398 7.68675C42.4096 6.36145 41.6145 5.03615 40.2892 3.71085C38.9639 2.38554 37.9036 1.85542 36.3133 1.06024C34.988 0.530122 33.3976 0.26506 31.012 0C28.6265 0 28.0964 0 22 0Z" fill="white"/>
<path d="M22 10.6024C15.6386 10.6024 10.6024 15.6386 10.6024 22C10.6024 28.3614 15.6386 33.3976 22 33.3976C28.3614 33.3976 33.3976 28.3614 33.3976 22C33.3976 15.6386 28.3614 10.6024 22 10.6024ZM22 29.4217C18.0241 29.4217 14.5783 26.241 14.5783 22C14.5783 18.0241 17.759 14.5783 22 14.5783C25.9759 14.5783 29.4217 17.759 29.4217 22C29.4217 25.9759 25.9759 29.4217 22 29.4217Z" fill="white"/>
<path d="M33.6627 12.988C35.1265 12.988 36.3133 11.8012 36.3133 10.3374C36.3133 8.87346 35.1265 7.68675 33.6627 7.68675C32.1988 7.68675 31.012 8.87346 31.012 10.3374C31.012 11.8012 32.1988 12.988 33.6627 12.988Z" fill="white"/>
</svg>
