<svg width="74" height="74" viewBox="0 0 74 74" fill="none" xmlns="http://www.w3.org/2000/svg">
<path d="M64.1184 36.4804C64.1184 32.9849 61.2648 30.151 57.745 30.151C57.5184 30.151 57.2952 30.1631 57.0749 30.1862L65.8288 4.5459H28.6278L37.3696 30.1638C37.2406 30.1557 37.1114 30.1515 36.9821 30.1512C33.4623 30.1512 30.6088 32.9846 30.6088 36.4806C30.6088 39.306 32.4735 41.6983 35.0468 42.5122C33.6877 44.8502 31.9773 46.9562 30.0355 48.7757C27.3949 51.2494 24.3729 53.1253 21.1045 54.2811C17.213 52.2958 15.3755 47.8807 17.0335 44.0096C17.2208 43.5723 17.4119 43.1292 17.5946 42.688C20.4138 42.0346 22.5148 39.5248 22.5148 36.5259C22.5148 33.0302 19.6612 30.1965 16.1411 30.1965C12.6211 30.1965 9.76775 33.0302 9.76775 36.5259C9.76775 38.6695 10.8415 40.563 12.4833 41.7079C10.9058 45.2747 8.58696 49.0078 7.86447 53.3342C6.99859 58.5192 7.86156 64.0231 12.3773 67.1314C22.894 74.37 34.3098 62.644 46.3462 59.6961C50.7083 58.628 55.4967 58.8001 59.3399 56.5897C62.226 54.9297 64.1288 52.1785 64.6687 49.0899C65.2024 46.0387 64.4246 43.0008 62.6361 40.5375C63.5956 39.4005 64.1205 37.9638 64.1184 36.4804" fill="#99425B"/>
<path d="M63.1349 48.8253C62.6662 51.5069 60.9985 53.8491 58.5598 55.252C56.2863 56.5596 53.562 56.9499 50.6773 57.3628C49.1322 57.584 47.5343 57.8132 45.9734 58.1953C41.8461 59.206 37.8483 61.178 33.9826 63.085C26.2457 66.9015 19.5642 70.197 13.2641 65.8606C8.64913 62.6844 8.86214 56.8075 9.39977 53.5872C9.89809 50.6034 11.2453 47.8556 12.5479 45.1983C12.7698 44.7467 12.9899 44.2942 13.2083 43.8409C13.8649 44.1015 14.5539 44.2732 15.2566 44.3512C13.9305 48.6974 16.016 53.4231 20.393 55.6561L20.9922 55.9618L21.6264 55.7375C25.0867 54.5136 28.2754 52.5499 31.1035 49.8999C32.9316 48.1871 34.5034 46.2921 35.7953 44.2673C36.1881 44.3262 36.5848 44.3557 36.982 44.3557C40.9994 44.3557 44.326 41.3732 44.8409 37.5211C46.4853 37.4614 48.2318 37.4609 49.8857 37.5207C50.4 41.3732 53.7272 44.356 57.7446 44.356C59.4244 44.356 60.9825 43.8332 62.2661 42.9451C63.1572 44.7567 63.4899 46.795 63.1349 48.8253V48.8253ZM16.1412 31.7423C18.7973 31.7423 20.958 33.8883 20.958 36.5261C20.958 37.4734 20.678 38.3569 20.1974 39.101C19.3968 40.341 18.0357 41.1911 16.4721 41.2971C16.3627 41.3043 16.2523 41.3096 16.1412 41.3096C15.5492 41.3096 14.9822 41.2024 14.458 41.0077C13.4021 40.6134 12.5179 39.8655 11.9579 38.893C11.542 38.1726 11.3235 37.3565 11.3242 36.5261C11.3242 33.8883 13.4851 31.7423 16.1412 31.7423V31.7423ZM32.1654 36.4805C32.1654 34.084 33.9493 32.0941 36.2672 31.75C36.5006 31.7151 36.7393 31.697 36.9822 31.697C38.5264 31.697 39.9013 32.4234 40.7829 33.5491C41.0038 33.8298 41.1924 34.134 41.3453 34.4562C41.6447 35.0896 41.7996 35.7808 41.799 36.4805C41.799 36.8629 41.7524 37.2347 41.6668 37.5913C41.1973 39.5428 39.5216 41.0347 37.4681 41.24C37.3085 41.2559 37.1464 41.2641 36.9822 41.2641C36.0557 41.2648 35.1489 40.9986 34.3717 40.4977C33.0456 39.6445 32.1654 38.163 32.1654 36.4805V36.4805ZM52.2694 30.7921C51.2211 31.7857 50.4668 33.0453 50.088 34.4343C48.2725 34.3678 46.4551 34.3678 44.6395 34.4343C44.2319 32.9328 43.3871 31.6081 42.2505 30.602L47.2349 20.5931L52.2694 30.7921ZM30.7988 6.09216H63.6573L55.8964 28.8232C55.5625 28.9026 55.2342 29.0036 54.9136 29.1255L47.2471 13.5941L39.5587 29.0328C39.2236 28.9185 38.881 28.8268 38.5335 28.7583L30.7988 6.09216ZM62.5614 36.4808C62.5614 36.9602 62.4893 37.4233 62.3566 37.8606C62.0418 38.8901 61.3879 39.7849 60.4999 40.4013C59.6928 40.9638 58.7306 41.2652 57.7446 41.2643C55.5206 41.2643 53.6445 39.7592 53.0928 37.7209C52.9832 37.3165 52.9278 36.8995 52.9278 36.4808C52.9278 35.8269 53.0608 35.2033 53.3009 34.6352C53.4249 34.3445 53.5775 34.0667 53.7566 33.8059C54.6234 32.5352 56.0861 31.6973 57.7446 31.6973C57.8967 31.6973 58.0467 31.705 58.1954 31.7189C60.6409 31.9452 62.5616 33.9939 62.5616 36.4808H62.5614ZM65.6748 36.4808C65.6748 32.6359 62.8853 29.4279 59.2112 28.7427L68 3H26.4565L35.2589 28.7947C31.7124 29.5785 29.0522 32.7258 29.0522 36.4805C29.0522 39.3 30.5525 41.7763 32.801 43.1679C31.7195 44.7682 30.437 46.2741 28.9673 47.6512C26.6363 49.8348 24.0396 51.491 21.2402 52.5808C18.4203 50.8217 17.2283 47.5043 18.4661 44.6145L18.5632 44.388L18.7451 43.963C21.8423 42.8901 24.0712 39.9628 24.0712 36.5261C24.0712 32.1835 20.5138 28.6506 16.1412 28.6506C11.7686 28.6506 8.21073 32.1835 8.21073 36.5261C8.21073 38.7179 9.1181 40.7027 10.5781 42.1319C10.3058 42.7049 10.0294 43.2759 9.74889 43.845C8.4138 46.5678 6.90088 49.6539 6.32856 53.0812C5.19217 59.8876 7.02534 65.3286 11.4906 68.4018C14.2001 70.2666 16.9518 71 19.7207 71C24.9344 71 30.2087 68.3986 35.3674 65.8539C39.0825 64.0216 42.9242 62.1266 46.7189 61.1971C48.1309 60.8513 49.5836 60.6432 51.1218 60.423C54.1721 59.9859 57.3261 59.5342 60.12 57.9274C63.3586 56.0645 65.5754 52.9395 66.2023 49.3544C66.7404 46.2765 66.0928 43.1937 64.5134 40.5791C65.2745 39.3457 65.6765 37.9271 65.6748 36.4805V36.4808Z" fill="white"/>
</svg>
