<svg width="68" height="68" viewBox="0 0 68 68" fill="none" xmlns="http://www.w3.org/2000/svg">
<g clip-path="url(#clip0_13_567)">
<path d="M34 68C52.768 68 68 52.768 68 34C68 15.232 52.768 0 34 0C15.232 0 0 15.232 0 34C0 52.768 15.232 68 34 68Z" fill="black"/>
<path d="M56.5079 59.4999L26.1119 20.3999H20.3999V47.5999H24.9559V26.1799L52.8359 62.2199C54.1279 61.4039 55.3519 60.5199 56.5079 59.4999Z" fill="url(#paint0_linear_13_567)"/>
<path d="M48.0081 20.3999H43.4521V47.5999H48.0081V20.3999Z" fill="url(#paint1_linear_13_567)"/>
</g>
<defs>
<linearGradient id="paint0_linear_13_567" x1="35.22" y1="48.8175" x2="48.6312" y2="65.4397" gradientUnits="userSpaceOnUse">
<stop stop-color="white"/>
<stop offset="1" stop-color="white" stop-opacity="0"/>
</linearGradient>
<linearGradient id="paint1_linear_13_567" x1="45.7631" y1="20.3912" x2="45.6872" y2="40.3663" gradientUnits="userSpaceOnUse">
<stop stop-color="white"/>
<stop offset="1" stop-color="white" stop-opacity="0"/>
</linearGradient>
<clipPath id="clip0_13_567">
<rect width="68" height="68" fill="white"/>
</clipPath>
</defs>
</svg>
