<svg width="74" height="74" viewBox="0 0 74 74" fill="none" xmlns="http://www.w3.org/2000/svg">
<path d="M65.8315 30.812C66.6495 28.5 66.9222 26.12 66.6495 23.808C66.3769 21.496 65.5589 19.116 64.5364 17.008C62.6278 13.812 59.8331 11.296 56.6294 9.8C53.2212 8.304 49.6085 7.896 45.9958 8.712C44.2917 7.012 42.3831 5.516 40.27 4.496C38.0888 3.408 35.5667 3 33.181 3C29.5683 3 25.9556 4.088 22.9563 6.196C19.9571 8.304 17.844 11.296 16.7534 14.696C14.1632 15.308 12.0501 16.396 9.93701 17.688C8.02841 19.184 6.5288 21.088 5.23368 22.992C3.32509 26.188 2.71161 29.792 3.1206 33.396C3.59775 37 5.09736 40.4 7.41493 43.188C6.59697 45.5 6.32431 47.88 6.59696 50.192C6.86962 52.504 7.68759 54.884 8.71005 56.992C10.6186 60.188 13.4134 62.704 16.6171 64.2C20.0253 65.696 23.638 66.104 27.2507 65.288C28.9548 66.988 30.8634 68.484 32.9765 69.504C35.0896 70.524 37.6798 71 39.9974 71C43.6101 71 47.2228 69.912 50.222 67.804C53.2212 65.696 55.3343 62.704 56.4249 59.304C58.7425 58.896 61.1282 57.808 63.0368 56.312C64.9454 54.816 66.6495 53.116 67.7401 51.008C69.6487 47.812 70.3304 44.208 69.8532 40.604C69.3761 37 68.1491 33.6 65.8315 30.812ZM40.27 66.512C36.8618 66.512 34.2716 65.424 31.954 63.52C31.954 63.52 32.1585 63.316 32.363 63.316L45.9958 55.428C46.4048 55.224 46.6093 55.02 46.8138 54.612C47.0183 54.204 47.0183 54 47.0183 53.524V34.416L52.744 37.816V53.524C53.0167 61.004 47.0864 66.512 40.27 66.512ZM12.7317 54.816C11.2321 52.232 10.6186 49.308 11.2321 46.316C11.2321 46.316 11.4366 46.52 11.6411 46.52L25.2739 54.408C25.6829 54.612 25.8874 54.612 26.3646 54.612C26.8417 54.612 27.1825 54.612 27.4552 54.408L44.0872 44.82V51.416L30.2499 59.508C27.2507 61.208 23.8425 61.616 20.6388 60.8C17.2306 59.916 14.4358 57.808 12.7317 54.816ZM9.11904 25.304C10.6186 22.72 12.9362 20.816 15.731 19.796V20.204V35.912C15.731 36.32 15.731 36.728 15.9354 37C16.1399 37.408 16.3444 37.612 16.7534 37.816L33.3854 47.404L27.6597 50.804L14.0269 42.916C11.0276 41.216 8.91454 38.428 8.02841 35.3C7.14228 32.172 7.41493 28.296 9.11904 25.304ZM56.2204 36.116L39.5884 26.596L45.3142 23.196L58.947 31.084C61.0601 32.376 62.7642 34.076 63.8548 36.184C64.9454 38.292 65.5589 40.672 65.3544 43.188C65.1499 45.5 64.2638 47.88 62.7642 49.784C61.2646 51.688 59.356 53.184 57.0384 54V37.816C57.0384 37.408 57.0384 37 56.8339 36.728C56.8339 36.796 56.6294 36.388 56.2204 36.116ZM61.9462 27.616C61.9462 27.616 61.7417 27.412 61.5372 27.412L47.9044 19.524C47.4954 19.32 47.2909 19.32 46.8138 19.32C46.3366 19.32 45.9958 19.32 45.7231 19.524L29.1593 29.112V22.516L42.9966 14.424C45.1097 13.132 47.4954 12.724 50.0175 12.724C52.3351 12.724 54.7208 13.54 56.8339 15.036C58.7425 16.532 60.4466 18.436 61.3327 20.544C62.2189 22.652 62.4233 25.304 61.9462 27.616ZM26.1601 39.516L20.4343 36.116V20.204C20.4343 17.892 21.0477 15.308 22.3429 13.404C23.638 11.296 25.5466 9.8 27.6597 8.712C29.7728 7.624 32.363 7.216 34.6806 7.692C36.9981 7.896 39.3839 8.984 41.2925 10.48C41.2925 10.48 41.088 10.684 40.8835 10.684L27.2507 18.572C26.8417 18.776 26.6372 18.98 26.4327 19.388C26.2282 19.796 26.2282 20 26.2282 20.476V39.516H26.1601ZM29.1593 32.716L36.5892 28.5L44.019 32.716V41.216L36.5892 45.432L29.1593 41.216V32.716Z" fill="#2B2B2B"/>
</svg>
