<svg width="74" height="74" viewBox="0 0 74 74" fill="none" xmlns="http://www.w3.org/2000/svg">
<path d="M60.9095 13.2189C56.7992 7.8963 51.2027 3.91216 44.828 1.77039C38.4532 -0.37138 31.5865 -0.574576 25.0962 1.1865C18.606 2.94757 12.7837 6.59382 8.36586 11.6641C3.948 16.7343 1.13294 23.0009 0.276725 29.6711C-0.579492 36.3414 0.56159 43.1157 3.55566 49.1374C6.54972 55.1591 11.2623 60.1577 17.0973 63.5009C22.9324 66.8441 29.6278 68.3818 36.3368 67.9196C43.0458 67.4573 49.4671 65.0158 54.7885 60.9039C69.6421 49.4247 72.3833 28.078 60.9084 13.2189H60.9095Z" fill="#FF6C37"/>
<path d="M45.467 21.6637L31.1308 36.1137L27.0796 31.9487C41.1894 17.8387 42.6057 19.1137 45.468 21.6637H45.467Z" fill="white"/>
<path d="M31.131 36.509C31.0041 36.5059 30.8828 36.4555 30.791 36.3677L26.7111 32.2877C26.6192 32.1926 26.5679 32.0656 26.5679 31.9334C26.5679 31.8012 26.6192 31.6741 26.7111 31.579C40.6223 17.6677 42.5209 18.319 45.8072 21.294C45.8622 21.3381 45.9063 21.3943 45.9358 21.4583C45.9653 21.5223 45.9795 21.5923 45.9772 21.6627C45.9985 21.8008 45.9453 21.9422 45.8359 22.0314L31.4997 36.3688C31.3992 36.4609 31.2674 36.5114 31.131 36.5101V36.509ZM27.7874 31.9477L31.131 35.2914L44.7309 21.6914C44.2613 21.1029 43.5913 20.7082 42.849 20.5828C42.1067 20.4573 41.3441 20.6099 40.7073 21.0114C38.2423 22.1164 34.276 25.4877 27.7874 31.9477V31.9477Z" fill="#FF6C37"/>
<path d="M35.2396 40.1085L31.3296 36.1136L45.6659 21.9463C49.5195 25.715 43.7959 32.0049 35.2396 40.1075V40.1085Z" fill="white"/>
<path d="M35.2398 40.6185C35.1143 40.6085 34.9953 40.559 34.8998 40.4771L30.9048 36.5672C30.8449 36.4219 30.8449 36.2588 30.9048 36.1135C30.8623 35.9942 30.8623 35.864 30.9048 35.7448L45.241 21.4085C45.3407 21.3148 45.4724 21.2627 45.6092 21.2627C45.746 21.2627 45.8776 21.3148 45.9773 21.4085C46.4416 21.8358 46.8084 22.3581 47.0528 22.9399C47.2972 23.5216 47.4134 24.1491 47.3936 24.7798C47.3936 28.6048 43.03 33.4211 35.6074 40.4485C35.5082 40.5466 35.3777 40.6068 35.2387 40.6185H35.2398ZM32.0661 36.1135L35.2674 39.3137C40.9337 33.9587 46.346 28.4338 46.3736 24.6938C46.4044 23.9009 46.1423 23.1244 45.6373 22.5125L32.0661 36.1135Z" fill="#FF6C37"/>
<path d="M27.1926 32.0339L30.0262 34.8675C30.0443 34.8835 30.0588 34.9031 30.0687 34.9251C30.0786 34.9471 30.0838 34.9709 30.0838 34.995C30.0838 35.0192 30.0786 35.043 30.0687 35.065C30.0588 35.087 30.0443 35.1066 30.0262 35.1225L24.0476 36.3975C23.9269 36.4236 23.801 36.4095 23.6891 36.3574C23.5772 36.3052 23.4853 36.218 23.4276 36.1089C23.3698 35.9997 23.3493 35.8747 23.3692 35.7529C23.3891 35.631 23.4482 35.519 23.5376 35.4338L27.0226 31.9775C27.0226 31.9775 27.1363 31.9775 27.1926 32.0339Z" fill="white"/>
<path d="M23.9062 36.9639C23.7173 36.9615 23.5322 36.9107 23.3685 36.8164C23.2048 36.7221 23.068 36.5874 22.9712 36.4252C22.8623 36.2197 22.8227 35.9845 22.8586 35.7546C22.8944 35.5248 23.0036 35.3128 23.1699 35.1502L26.6262 31.6652C26.7508 31.5538 26.9121 31.4922 27.0793 31.4922C27.2465 31.4922 27.4078 31.5538 27.5325 31.6652L30.3661 34.4989C30.534 34.6582 30.5999 34.8994 30.5361 35.1226C30.4724 35.3457 30.2854 35.5231 30.0548 35.5762L24.0762 36.8512L23.9062 36.9639ZM27.0798 32.6576L23.8786 35.8589L29.1772 34.7252L27.0798 32.6576Z" fill="#FF6C37"/>
<path d="M53.0896 13.7012C51.039 11.7228 47.8175 11.6399 45.6669 13.5068C43.5164 15.3736 43.1488 18.5781 44.8233 20.8837C46.4978 23.1893 49.6545 23.8353 52.0983 22.3712L48.2446 18.5175L53.0896 13.7012Z" fill="white"/>
<path d="M49.2645 23.674C48.0864 23.6589 46.9387 23.2974 45.9646 22.6347C44.9904 21.9719 44.2328 21.0371 43.7862 19.9468C43.34 18.8573 43.2229 17.6608 43.4495 16.5055C43.6761 15.3501 44.2365 14.2866 45.0612 13.4464C46.1956 12.3328 47.7217 11.709 49.3112 11.709C50.9008 11.709 52.4269 12.3328 53.5612 13.4464C53.6696 13.5377 53.7312 13.6727 53.7312 13.8151C53.731 13.8851 53.7157 13.9543 53.6863 14.0179C53.657 14.0815 53.6143 14.1381 53.5612 14.1837L48.9712 18.5188L52.4562 21.9474C52.5127 22.0014 52.5551 22.0683 52.5797 22.1424C52.6044 22.2165 52.6105 22.2955 52.5976 22.3724C52.5892 22.4467 52.5645 22.5183 52.5254 22.582C52.4863 22.6457 52.4337 22.7 52.3712 22.7411C51.435 23.3263 50.3587 23.6493 49.2549 23.6761L49.2645 23.674ZM49.2645 12.6803C47.2457 12.6909 45.4395 13.9054 44.6819 15.7616C43.9244 17.6178 44.3366 19.7544 45.7519 21.1803C46.4558 21.8884 47.3572 22.3673 48.3379 22.5544C49.3186 22.7415 50.333 22.6281 51.2482 22.229L47.9045 18.8853C47.8513 18.8428 47.8084 18.7889 47.7789 18.7276C47.7494 18.6662 47.7341 18.599 47.7341 18.531C47.7341 18.4629 47.7494 18.3957 47.7789 18.3344C47.8084 18.273 47.8513 18.2191 47.9045 18.1766L52.3245 13.7279C51.4459 13.0546 50.3715 12.6863 49.2645 12.6792V12.6803Z" fill="#FF6C37"/>
<path d="M53.1745 13.7861L48.3296 18.6024L52.1832 22.4561C52.571 22.2334 52.9322 21.9671 53.2595 21.6624C54.2695 20.5948 54.8252 19.1766 54.8093 17.7071C54.7935 16.2375 54.2073 14.8317 53.1745 13.7861V13.7861Z" fill="white"/>
<path d="M52.0969 22.8814C52.0333 22.8848 51.9697 22.8739 51.9108 22.8494C51.852 22.825 51.7994 22.7876 51.7569 22.7401L47.9033 18.8864C47.8501 18.8439 47.8072 18.7899 47.7777 18.7286C47.7482 18.6673 47.7329 18.6001 47.7329 18.532C47.7329 18.464 47.7482 18.3968 47.7777 18.3354C47.8072 18.2741 47.8501 18.2202 47.9033 18.1777L52.7195 13.4463C52.7661 13.3762 52.8292 13.3187 52.9034 13.2789C52.9775 13.2391 53.0604 13.2183 53.1445 13.2183C53.2287 13.2183 53.3116 13.2391 53.3857 13.2789C53.4599 13.3187 53.523 13.3762 53.5695 13.4463C54.1349 14.0003 54.5841 14.6616 54.8908 15.3914C55.1974 16.1211 55.3554 16.9048 55.3554 17.6964C55.3554 18.4879 55.1974 19.2716 54.8908 20.0013C54.5841 20.7311 54.1349 21.3924 53.5695 21.9464C53.236 22.3001 52.8544 22.6052 52.4359 22.8527C52.3305 22.9058 52.2086 22.9161 52.0959 22.8814H52.0969ZM48.9806 18.5187L52.1819 21.7201C52.4021 21.5657 52.6106 21.3952 52.8056 21.2101C53.7467 20.2715 54.2767 18.9978 54.2793 17.6687C54.2814 16.4793 53.8479 15.3303 53.0606 14.4387L48.9806 18.5187Z" fill="#FF6C37"/>
<path d="M46.062 22.2587C45.6783 21.8984 45.1716 21.6978 44.6452 21.6978C44.1188 21.6978 43.6121 21.8984 43.2284 22.2587L30.3945 35.064L32.5195 37.2177L46.0907 25.3177C46.2977 25.1193 46.4619 24.8807 46.5731 24.6165C46.6844 24.3523 46.7404 24.0681 46.7377 23.7815C46.735 23.4948 46.6737 23.2117 46.5575 22.9497C46.4413 22.6876 46.2727 22.4521 46.062 22.2577V22.2587Z" fill="white"/>
<path d="M32.4059 37.7285C32.2789 37.7254 32.1577 37.675 32.0659 37.5872L29.9122 35.4335C29.8204 35.3384 29.769 35.2114 29.769 35.0792C29.769 34.947 29.8204 34.8199 29.9122 34.7248L42.7471 21.9462C43.1168 21.5769 43.5889 21.3273 44.1022 21.2296C44.6155 21.1319 45.1463 21.1907 45.6257 21.3983C46.1052 21.6059 46.5113 21.9528 46.7912 22.394C47.0712 22.8351 47.2121 23.3502 47.1958 23.8725C47.1811 24.227 47.0958 24.5749 46.9449 24.896C46.794 25.2171 46.5806 25.5049 46.3171 25.7425L32.7459 37.6425C32.6472 37.7123 32.5259 37.7427 32.4059 37.7275V37.7285ZM30.9046 35.0638L32.3209 36.5088L45.6371 24.9201C45.9665 24.6332 46.163 24.2231 46.1758 23.7864C46.1885 23.3497 46.0164 22.9226 45.6945 22.6251C45.3972 22.3291 44.9947 22.1628 44.5751 22.1628C44.1556 22.1628 43.7531 22.3291 43.4558 22.6251L30.9046 35.0638Z" fill="#FF6C37"/>
<path d="M20.45 49.6563C20.4137 49.7056 20.3942 49.7652 20.3942 49.8263C20.3942 49.8875 20.4137 49.9471 20.45 49.9963L21.0163 52.4614C21.039 52.6064 21.0175 52.7549 20.9545 52.8876C20.8916 53.0203 20.7902 53.1309 20.6635 53.2051C20.5373 53.2789 20.3909 53.3108 20.2454 53.2961C20.0999 53.2814 19.9628 53.2209 19.8539 53.1233L15.9727 49.3833L28.0712 37.189H32.2648L35.0985 40.0227C30.6782 43.8874 25.7496 47.1287 20.45 49.6563V49.6563Z" fill="white"/>
<path d="M20.195 53.8213C19.8741 53.815 19.5575 53.6832 19.345 53.4527L15.6337 49.7413C15.5806 49.6988 15.5377 49.6449 15.5082 49.5836C15.4787 49.5222 15.4634 49.4551 15.4634 49.387C15.4634 49.3189 15.4787 49.2518 15.5082 49.1904C15.5377 49.1291 15.5806 49.0752 15.6337 49.0327L27.8163 36.8214C27.8845 36.7489 27.9736 36.6995 28.0713 36.68H32.2925C32.4025 36.6412 32.5225 36.6412 32.6325 36.68L35.4662 39.5137C35.5201 39.5634 35.5611 39.6254 35.5857 39.6945C35.6103 39.7635 35.6178 39.8375 35.6075 39.91C35.6095 39.9804 35.5952 40.0504 35.5657 40.1143C35.5362 40.1783 35.4923 40.2345 35.4375 40.2787L35.2112 40.4774C30.7731 44.1774 25.8904 47.3087 20.6763 49.7987L21.215 52.0937C21.2566 52.2708 21.2582 52.4549 21.2197 52.6326C21.1811 52.8103 21.1033 52.9772 20.9921 53.1211C20.8808 53.2649 20.7388 53.3821 20.5765 53.4641C20.4141 53.5461 20.2355 53.5909 20.0537 53.595L20.195 53.8213ZM16.7387 49.3727L20.0813 52.744C20.1125 52.7717 20.1527 52.7871 20.1945 52.7871C20.2362 52.7871 20.2765 52.7717 20.3076 52.744C20.3285 52.715 20.3397 52.6803 20.3397 52.6446C20.3397 52.609 20.3285 52.5742 20.3076 52.5453L19.7413 50.0803C19.6967 49.9034 19.7146 49.7165 19.7921 49.5513C19.8696 49.3861 20.0018 49.2528 20.1663 49.174C25.2402 46.7172 29.997 43.6536 34.3325 40.0503L32.0088 37.7266H28.2126L16.7387 49.3727Z" fill="#FF6C37"/>
<path d="M13.0551 52.2912L15.8887 49.4575L20.2524 53.8212L13.3111 53.3399C13.1919 53.3305 13.0788 53.2838 12.9877 53.2063C12.8967 53.1288 12.8325 53.0246 12.8042 52.9084C12.7759 52.7923 12.785 52.6702 12.8303 52.5595C12.8755 52.4489 12.9546 52.3553 13.0561 52.2923L13.0551 52.2912Z" fill="white"/>
<path d="M20.3362 54.2465L13.4226 53.7652C13.0125 53.727 12.6597 53.4465 12.5152 53.0714C12.3707 52.6963 12.4589 52.2511 12.7426 51.9515L15.5763 49.1178C15.6713 49.026 15.7984 48.9746 15.9306 48.9746C16.0628 48.9746 16.1899 49.026 16.2849 49.1178L20.6199 53.4528C20.6799 53.535 20.7122 53.6342 20.7122 53.736C20.7122 53.8378 20.6799 53.9369 20.6199 54.0191C20.5543 54.1251 20.4541 54.2051 20.3362 54.2455V54.2465ZM13.4226 52.6602L19.0888 53.0289L15.9726 50.1102L13.4226 52.6602Z" fill="#FF6C37"/>
<path d="M32.6611 37.5311L26.9375 38.4098L30.2524 35.1235L32.6611 37.5311Z" fill="white"/>
<path d="M26.9372 38.9461C26.842 38.9486 26.7483 38.9231 26.6676 38.8726C26.5869 38.8222 26.5229 38.7491 26.4835 38.6624C26.4232 38.5804 26.3906 38.4812 26.3906 38.3793C26.3906 38.2774 26.4232 38.1782 26.4835 38.0961L29.7697 34.7811C29.8694 34.6874 30.0011 34.6353 30.1379 34.6353C30.2747 34.6353 30.4063 34.6874 30.506 34.7811L32.9157 37.1887C32.9639 37.2651 32.9894 37.3535 32.9894 37.4437C32.9894 37.534 32.9639 37.6224 32.9157 37.6987C32.8921 37.7918 32.8421 37.8761 32.7719 37.9414C32.7016 38.0068 32.6139 38.0506 32.5194 38.0674L26.8532 38.9461H26.9372ZM30.2521 35.8574L28.4108 37.6987L31.5844 37.2174L30.2521 35.8574Z" fill="#FF6C37"/>
<path d="M32.6608 37.5288L28.6658 38.0388C28.5589 38.0631 28.4471 38.0523 28.3468 38.008C28.2465 37.9636 28.1632 37.8882 28.1092 37.7928C28.0552 37.6974 28.0333 37.5871 28.0469 37.4783C28.0605 37.3695 28.1087 37.268 28.1845 37.1888L30.2532 35.1201L32.6608 37.5288Z" fill="white"/>
<path d="M28.5521 38.5788C28.367 38.577 28.1856 38.5262 28.0264 38.4316C27.8672 38.337 27.7359 38.2019 27.6458 38.0401C27.5376 37.8461 27.4957 37.6222 27.5264 37.4022C27.5571 37.1823 27.6587 36.9783 27.8158 36.8214L29.8845 34.7527C29.9842 34.659 30.1159 34.6069 30.2527 34.6069C30.3895 34.6069 30.5211 34.659 30.6208 34.7527L33.0295 37.1614C33.1011 37.2293 33.1515 37.3164 33.1746 37.4124C33.1977 37.5083 33.1924 37.6089 33.1594 37.7019C33.1265 37.7949 33.0673 37.8764 32.9889 37.9364C32.9106 37.9964 32.8166 38.0324 32.7182 38.0401L28.7519 38.5501L28.5521 38.5788ZM28.5521 37.5301L31.5558 37.1614L30.2245 35.8301L28.5245 37.5301H28.5521ZM53.2019 17.045C53.1486 16.9556 53.0642 16.8889 52.9649 16.8576C52.8656 16.8263 52.7583 16.8325 52.6633 16.875C52.6164 16.8988 52.5747 16.9317 52.5408 16.9719C52.5068 17.012 52.4813 17.0586 52.4656 17.1088C52.4341 17.2101 52.444 17.3198 52.4932 17.4137C52.6919 17.8313 52.6367 18.3254 52.3519 18.6887C52.3166 18.7237 52.2889 18.7657 52.2706 18.812C52.2523 18.8582 52.2438 18.9078 52.2457 18.9575C52.2467 19.0572 52.2846 19.1529 52.3519 19.2264C52.4246 19.2551 52.5055 19.2551 52.5782 19.2264C52.6442 19.2429 52.7135 19.2411 52.7785 19.2211C52.8435 19.201 52.9018 19.1635 52.9469 19.1127C53.1802 18.827 53.328 18.4812 53.3731 18.1151C53.4182 17.7491 53.3589 17.3777 53.2019 17.044V17.045Z" fill="#FF6C37"/>
</svg>
