<svg width="113" height="74" viewBox="0 0 113 74" fill="none" xmlns="http://www.w3.org/2000/svg">
<path d="M56.5 3C41.4329 3 32.0164 10.5557 28.2493 25.6657C33.9 18.11 40.4918 15.2777 48.0247 17.1659C52.3231 18.2433 55.395 21.3719 58.7962 24.8336C64.3353 30.4727 70.7462 36.9993 84.7507 36.9993C99.8164 36.9993 109.234 29.4436 113 14.3322C107.351 21.8879 100.759 24.7216 93.2247 22.8334C88.9276 21.756 85.8557 18.6274 82.4545 15.1657C76.9155 9.52655 70.5031 3 56.5 3V3ZM28.2493 36.9993C13.1836 36.9993 3.76572 44.555 0 59.6664C5.64929 52.1107 12.2411 49.277 19.7754 51.1666C24.0724 52.2454 27.1443 55.3726 30.5455 58.8329C36.0845 64.472 42.4969 71 56.5 71C71.5671 71 80.9836 63.4443 84.7507 48.3329C79.1 55.8886 72.5082 58.7223 64.9754 56.8327C60.6769 55.7567 57.605 52.6267 54.2038 49.1664C48.6648 43.5273 42.2538 36.9993 28.2493 36.9993V36.9993Z" fill="#06B6D4"/>
</svg>
