<svg width="74" height="74" viewBox="0 0 74 74" fill="none" xmlns="http://www.w3.org/2000/svg">
<path d="M0 0H74V74H0V0Z" fill="#017ACB"/>
<path d="M35.5318 27.4031H39.0815V33.5312H29.4846V60.7956L29.2302 60.865C28.8833 60.9575 24.3162 60.9575 23.3333 60.8534L22.5471 60.784V33.5312H12.9502V27.4031L15.9911 27.3684C17.6561 27.3453 21.9343 27.3453 25.4955 27.3684C29.0568 27.3915 33.5662 27.4031 35.5318 27.4031ZM62.6228 57.905C61.2122 59.3965 59.6975 60.229 57.1768 60.9112C56.0784 61.2118 55.8934 61.2234 53.419 61.2118C50.9446 61.2003 50.7481 61.2003 49.5456 60.8881C46.4353 60.0903 43.9262 58.5293 42.2149 56.3209C41.7293 55.6965 40.9315 54.4015 40.9315 54.2396C40.9315 54.1934 41.0471 54.0893 41.1974 54.02C41.3477 53.9506 41.6599 53.754 41.9143 53.6037C42.1687 53.4534 42.6312 53.1759 42.9434 53.014C43.2556 52.8521 44.1574 52.3203 44.9437 51.8462C45.7299 51.3721 46.4468 50.9906 46.5278 50.9906C46.6087 50.9906 46.759 51.1525 46.8746 51.349C47.5684 52.5168 49.1871 54.0084 50.3318 54.5171C51.0371 54.8178 52.5981 55.1531 53.3496 55.1531C54.0434 55.1531 55.3153 54.8525 55.9975 54.5403C56.7259 54.205 57.0959 53.8696 57.5353 53.199C57.8359 52.725 57.8706 52.5978 57.859 51.6959C57.859 50.8634 57.8128 50.6321 57.5815 50.2506C56.934 49.1868 56.0553 48.6318 52.494 47.0593C48.8171 45.429 47.1637 44.4578 45.8224 43.1512C44.8281 42.18 44.6315 41.914 44.0071 40.7C43.1977 39.139 43.0937 38.6303 43.0821 36.3062C43.0706 34.6759 43.1052 34.144 43.2787 33.589C43.5215 32.7565 44.3077 31.1493 44.6662 30.7446C45.4062 29.8775 45.6721 29.6115 46.1924 29.1837C47.7649 27.8887 50.2162 27.0331 52.5634 26.9521C52.8293 26.9521 53.7081 26.9984 54.529 27.0562C56.8878 27.2528 58.495 27.8309 60.0443 29.0681C61.2122 29.9931 62.9812 32.1668 62.8078 32.4559C62.6922 32.6293 58.0787 35.705 57.7781 35.7975C57.5931 35.8553 57.4659 35.7859 57.2115 35.4853C55.639 33.6006 55.0031 33.1959 53.4768 33.1034C52.3899 33.034 51.8118 33.1612 51.0834 33.6468C50.3203 34.1556 49.9503 34.9303 49.9503 36.0056C49.9618 37.5781 50.5631 38.3181 52.7831 39.4165C54.2168 40.1218 55.4425 40.7 55.535 40.7C55.6737 40.7 58.6453 42.18 59.42 42.6425C63.0275 44.7584 64.4959 46.9321 64.8775 50.6784C65.155 53.4996 64.3572 56.0781 62.6228 57.905Z" fill="white"/>
</svg>
