<svg width="44" height="44" viewBox="0 0 44 44" fill="none" xmlns="http://www.w3.org/2000/svg">
<path d="M37.561 6.41667C33.4216 2.29166 27.9024 0 22.0767 0C9.96515 0 0.153308 9.77778 0.153308 21.8472C0.153308 25.6667 1.22648 29.4861 3.0662 32.6944L0 44L11.6516 40.9444C14.8711 42.625 18.3972 43.5417 22.0767 43.5417C34.1881 43.5417 44 33.7639 44 21.6944C43.8467 16.0417 41.7003 10.5417 37.561 6.41667ZM32.655 29.6389C32.1951 30.8611 30.0488 32.0833 28.9756 32.2361C28.0557 32.3889 26.8293 32.3889 25.6028 32.0833C24.8362 31.7778 23.7631 31.4722 22.5366 30.8611C17.0174 28.5694 13.4913 23.0694 13.1847 22.6111C12.8781 22.3056 10.885 19.7083 10.885 16.9583C10.885 14.2083 12.2648 12.9861 12.7247 12.375C13.1847 11.7639 13.7979 11.7639 14.2578 11.7639C14.5645 11.7639 15.0244 11.7639 15.331 11.7639C15.6376 11.7639 16.0976 11.6111 16.5575 12.6806C17.0174 13.75 18.0906 16.5 18.2439 16.6528C18.3972 16.9583 18.3972 17.2639 18.2439 17.5694C18.0906 17.875 17.9373 18.1806 17.6307 18.4861C17.324 18.7917 17.0174 19.25 16.8641 19.4028C16.5575 19.7083 16.2509 20.0139 16.5575 20.4722C16.8641 21.0833 17.9373 22.7639 19.6237 24.2917C21.77 26.125 23.4564 26.7361 24.0697 27.0417C24.6829 27.3472 24.9895 27.1944 25.2962 26.8889C25.6028 26.5833 26.676 25.3611 26.9826 24.75C27.2892 24.1389 27.7491 24.2917 28.2091 24.4444C28.669 24.5972 31.4286 25.9722 31.8885 26.2778C32.5017 26.5833 32.8084 26.7361 32.9617 26.8889C33.115 27.3472 33.115 28.4167 32.655 29.6389Z" fill="white"/>
</svg>
